<?xml version="1.0" encoding="utf-8"?>
<!-- Generator: Adobe Illustrator 25.2.1, SVG Export Plug-In . SVG Version: 6.00 Build 0)  -->
<svg version="1.2" baseProfile="tiny" id="Layer_1" xmlns="http://www.w3.org/2000/svg" xmlns:xlink="http://www.w3.org/1999/xlink"
	 x="0px" y="0px" viewBox="0 0 244.62 247.3" overflow="visible" xml:space="preserve">
<g>
	<path d="M39.25,83.54c-0.5-3.4-1.26-6.58-1.37-9.78c-0.34-10.46,0.1-20.87,3.13-31.01c0.4-1.35,1.11-2.03,2.43-2.38
		c9.79-2.62,19.71-3.38,29.8-2.49c18.31,1.62,34.22,8.84,48.14,20.65c1.06,0.9,1.7,0.56,2.64-0.08c5.11-3.45,10.28-6.83,15.4-10.27
		c1.63-1.1,2.63-0.85,3.37,1.04c0.59,1.51,1.37,2.96,2.17,4.37c0.9,1.58,0.44,2.6-0.97,3.58c-4.41,3.06-8.84,6.08-13.1,9.34
		c-2.36,1.8-4.43,3.99-6.55,6.09c-0.92,0.92-1.52,0.9-2.53,0.08c-5.84-4.74-11.48-9.81-17.7-13.99
		c-8.95-6.02-19.04-9.35-29.81-10.47c-7.19-0.75-14.34-0.57-21.48,0.49c-2.9,0.43-3.32,0.9-3.91,3.78c-1.62,8.04-1.9,16.1-0.49,24.2
		c0.25,1.41-0.08,2.56-1.48,3.22C44.55,81.04,42.16,82.16,39.25,83.54z"/>
	<path d="M98.57,190.38c9.01-4.89,16.74-10.9,23.66-18.9c2.22,2.41,4.18,4.86,6.46,6.96c11.54,10.65,25.08,17.24,40.68,19.28
		c8.17,1.07,16.37,0.75,24.54-0.36c1.35-0.18,2.06-0.72,2.14-2.33c0.2-3.99,0.93-7.95,0.99-11.94c0.06-4.18-0.32-8.38-0.67-12.56
		c-0.16-1.95,0.53-3.02,2.33-3.69c2.33-0.86,4.59-1.92,7-2.94c1.01,7.52,2.11,14.87,1.07,22.32c-0.78,5.56-1.73,11.1-2.48,16.66
		c-0.23,1.71-1.08,2.47-2.64,2.85c-8.4,2.09-16.91,3.11-25.57,2.82c-19.65-0.65-36.92-7.39-51.78-20.23
		c-1.53-1.32-2.49-1.37-4.12-0.23c-4.94,3.46-10.03,6.71-15.05,10.04c-1.65,1.1-2.68,0.67-3.43-1.15
		C100.78,194.81,99.68,192.72,98.57,190.38z"/>
	<path d="M171.34,123.82c3.38-3.75,6.82-7.14,9.78-10.91c7.53-9.58,12.87-20.28,15.06-32.33c1.53-8.43,1.89-16.91,0.35-25.46
		c-1.09-6.03,0.05-5.15-6.48-6.38c-7.22-1.37-14.43-0.82-21.63,0.24c-1.66,0.24-2.69-0.15-3.35-1.79c-0.98-2.44-2.14-4.81-3.37-7.52
		c2.93-0.45,5.63-1,8.36-1.25c10.61-0.98,21.1-0.37,31.45,2.34c1.67,0.44,2.55,1.14,2.8,2.92c0.99,6.96,2.83,13.88,3.02,20.86
		c0.53,19.34-5.42,36.84-16.69,52.54c-1.19,1.65-2.39,3.31-3.74,4.83c-1.05,1.17-1.02,1.98-0.1,3.3
		c3.56,5.12,7.01,10.31,10.34,15.57c1.45,2.29,1.18,2.76-1.27,4.06c-1.91,1.01-3.86,1.96-6.1,3.1
		C185.22,138.56,178.77,130.7,171.34,123.82z"/>
	<path d="M59.46,123.6c-2.24-2.94-4.49-5.67-6.48-8.57c-2.03-2.96-3.79-6.11-5.69-9.16c-0.74-1.18-0.53-2.01,0.74-2.62
		c1.95-0.95,3.9-1.91,5.83-2.9c0.95-0.48,1.66-0.4,2.18,0.62c4.1,8.2,9.95,15.02,16.55,21.27c0.19,0.18,0.31,0.42,0.58,0.79
		c-2.45,2.92-4.85,5.85-7.33,8.72c-9.25,10.74-15.22,23.04-17.59,37.03c-1.21,7.12-1.61,14.28-0.27,21.45
		c0.11,0.59,0.06,1.22,0.09,1.83c0.16,3.58,1.3,4.92,4.85,5.3c7.49,0.81,14.98,1.52,22.48,0.11c2.03-0.38,3.46,0.05,4.16,2.32
		c0.67,2.18,1.77,4.22,2.82,6.66c-2.26,0.44-4.27,0.99-6.32,1.2c-11.31,1.17-22.45,0.23-33.45-2.67c-1.34-0.35-2.08-1-2.41-2.38
		c-2.21-9.29-3.42-18.72-2.74-28.23c1.32-18.36,8.27-34.55,19.85-48.79C57.88,124.92,58.6,124.4,59.46,123.6z"/>
	<path d="M35.48,154.85c-10.52-7.17-18.89-15.93-25.43-26.46c-0.43-0.69-0.84-1.4-1.33-2.05c-2.04-2.71-2.03-3.53-0.16-6.29
		c6.44-9.5,13.73-18.2,23.11-24.99c11.71-8.48,24.63-13.88,38.96-15.85c1.34-0.19,2.06,0.14,2,1.68c-0.08,2.04-0.08,4.08,0,6.11
		c0.05,1.34-0.5,1.84-1.78,2.2c-6.06,1.69-12.3,2.98-18.07,5.4c-12.44,5.2-22.79,13.32-30.85,24.23c-3.35,4.53-3.37,4.51,0.01,9.08
		c4.18,5.66,9.04,10.66,14.54,15.04c2.62,2.09,2.62,2.09,1.46,5.26C37.16,150.36,36.35,152.51,35.48,154.85z"/>
	<path d="M209.35,92.81c8.67,5.41,15.55,12.27,21.44,20.17c2.11,2.83,4.32,5.61,6.13,8.62c0.63,1.05,0.72,3.08,0.1,4.1
		c-13.65,22.7-33.36,36.96-59.49,41.84c-4.97,0.93-4.89,2.22-4.87-3.89c0.02-5.51,0.03-5.4,5.38-6.62
		c19.49-4.45,35.46-14.26,46.87-30.99c1.09-1.6,0.85-2.79-0.14-4.22c-4.84-6.99-10.64-13.04-17.47-18.09
		c-1.33-0.98-1.68-1.83-0.98-3.36C207.41,97.98,208.29,95.49,209.35,92.81z"/>
	<path d="M153.61,210.46c-3.52,4.23-6.62,8.26-10.05,11.99c-5.27,5.72-11.32,10.55-17.86,14.75c-2.78,1.79-5.84,1.54-8.34-0.55
		c-4.43-3.69-9.22-7.01-13.33-11.02c-14.01-13.67-22.26-30.39-25.24-49.71c-0.06-0.38,0.7-1.26,1.11-1.28
		c2.37-0.12,4.75-0.01,7.13-0.08c1.68-0.05,1.5,1.27,1.8,2.21c1.76,5.54,3.2,11.21,5.3,16.62c4.7,12.06,12.58,21.8,22.79,29.69
		c1.24,0.95,2.43,1.97,3.61,2.99c0.96,0.84,1.94,0.96,2.92,0.12c6.33-5.41,13.48-9.96,18.23-17.05c1.3-1.93,2.72-2.36,4.82-1.42
		C148.59,208.65,150.78,209.38,153.61,210.46z"/>
	<path d="M91.92,35.97c2.94-3.44,5.44-6.63,8.22-9.57c5.89-6.23,12.13-12.08,19.55-16.51c2.13-1.27,4.22-1.35,6.28,0.01
		c21.02,13.8,34.5,32.82,39.74,57.53c0.29,1.39,0.41,2.81,0.59,4.22c0.13,1.02-0.3,1.5-1.38,1.49c-2.38-0.02-4.76,0.14-7.13-0.01
		c-0.62-0.04-1.62-0.89-1.7-1.47c-2.1-16.03-10.37-28.98-20.62-40.81c-3.16-3.65-7.33-6.42-11.04-9.59
		c-1.42-1.21-2.69-0.69-4.03,0.26c-6.43,4.54-12.19,9.78-16.81,16.17c-1.24,1.71-2.56,1.95-4.37,1.19
		C97.05,37.94,94.84,37.11,91.92,35.97z"/>
	<path d="M117.88,103.82c-7.58,6.08-13.68,12.87-18.54,20.74c-4.89,7.92-8.38,16.4-10.16,25.57c-0.57,2.91-0.64,2.92-3.58,2.93
		c-1.63,0-3.26-0.01-4.89,0c-1.48,0.01-2.05-0.59-1.81-2.15c1.66-10.93,5.35-21.12,10.93-30.64c4.36-7.45,9.83-13.98,16.17-19.81
		c1.01-0.93,1.94-1.28,3.27-0.62C111.99,101.18,114.77,102.4,117.88,103.82z"/>
	<path d="M127.85,143.48c2.78-2.65,5.38-5.03,7.87-7.51c8.55-8.55,14.26-18.73,17.43-30.38c0.79-2.88,1.64-5.73,2.51-8.59
		c0.7-2.29,1.68-2.91,4.07-2.73c1.62,0.13,3.24,0.35,4.86,0.34c1.52-0.01,1.86,0.6,1.64,2c-1.34,8.58-4.09,16.7-7.89,24.49
		c-4.8,9.84-11.39,18.3-19.36,25.75c-0.91,0.86-1.76,1.13-2.91,0.56C133.46,146.12,130.82,144.89,127.85,143.48z"/>
	<path d="M103.19,128.91c3.13,3.36,5.89,6.54,8.89,9.47c10.4,10.15,22.85,16.37,37.1,19.04c1.46,0.27,2.16,0.74,2.07,2.33
		c-0.11,2.1-0.07,4.21-0.01,6.32c0.04,1.35-0.39,1.79-1.81,1.55c-19.94-3.28-36.45-12.72-49.88-27.7c-0.45-0.51-0.86-1.56-0.63-2.08
		C100.21,134.87,101.69,131.99,103.19,128.91z"/>
	<path d="M142.32,118.65c-2.94-3.15-5.56-6.17-8.4-8.96c-10.43-10.26-22.89-16.77-37.18-19.75c-1.47-0.31-1.92-0.88-1.86-2.28
		c0.08-2.1,0.06-4.21,0.01-6.31c-0.04-1.47,0.57-1.95,1.99-1.67c19.05,3.72,35.27,12.48,48.26,27.02c1.25,1.4,1.56,2.79,0.77,4.45
		C144.74,113.59,143.57,116.02,142.32,118.65z"/>
</g>
</svg>
